<?xml version="1.0" encoding="UTF-8"?><svg id="Layer_2" xmlns="http://www.w3.org/2000/svg" viewBox="0 0 69 14"><defs><style>.cls-1{fill:#4d4d4d;}</style></defs><g id="Layer_1-2"><circle class="cls-1" cx="5" cy="1" r="1"/><circle class="cls-1" cx="8" cy="1" r="1"/><circle class="cls-1" cx="11" cy="1" r="1"/><circle class="cls-1" cx="14" cy="1" r="1"/><circle class="cls-1" cx="17" cy="1" r="1"/><circle class="cls-1" cx="20" cy="1" r="1"/><circle class="cls-1" cx="23" cy="1" r="1"/><circle class="cls-1" cx="26" cy="1" r="1"/><circle class="cls-1" cx="29" cy="1" r="1"/><circle class="cls-1" cx="32" cy="1" r="1"/><circle class="cls-1" cx="35" cy="1" r="1"/><circle class="cls-1" cx="38" cy="1" r="1"/><circle class="cls-1" cx="41" cy="1" r="1"/><circle class="cls-1" cx="44" cy="1" r="1"/><circle class="cls-1" cx="47" cy="1" r="1"/><circle class="cls-1" cx="50" cy="1" r="1"/><circle class="cls-1" cx="53" cy="1" r="1"/><circle class="cls-1" cx="56" cy="1" r="1"/><circle class="cls-1" cx="59" cy="1" r="1"/><circle class="cls-1" cx="62" cy="1" r="1"/><circle class="cls-1" cx="65" cy="1" r="1"/><circle class="cls-1" cx="68" cy="1" r="1"/><circle class="cls-1" cx="4" cy="4" r="1"/><circle class="cls-1" cx="7" cy="4" r="1"/><circle class="cls-1" cx="10" cy="4" r="1"/><circle class="cls-1" cx="16" cy="4" r="1"/><circle class="cls-1" cx="19" cy="4" r="1"/><circle class="cls-1" cx="22" cy="4" r="1"/><circle class="cls-1" cx="25" cy="4" r="1"/><circle class="cls-1" cx="28" cy="4" r="1"/><circle class="cls-1" cx="34" cy="4" r="1"/><circle class="cls-1" cx="37" cy="4" r="1"/><circle class="cls-1" cx="40" cy="4" r="1"/><circle class="cls-1" cx="43" cy="4" r="1"/><circle class="cls-1" cx="46" cy="4" r="1"/><circle class="cls-1" cx="52" cy="4" r="1"/><circle class="cls-1" cx="55" cy="4" r="1"/><circle class="cls-1" cx="58" cy="4" r="1"/><circle class="cls-1" cx="61" cy="4" r="1"/><circle class="cls-1" cx="64" cy="4" r="1"/><circle class="cls-1" cx="6" cy="7" r="1"/><circle class="cls-1" cx="9" cy="7" r="1"/><circle class="cls-1" cx="12" cy="7" r="1"/><circle class="cls-1" cx="15" cy="7" r="1"/><circle class="cls-1" cx="18" cy="7" r="1"/><circle class="cls-1" cx="24" cy="7" r="1"/><circle class="cls-1" cx="27" cy="7" r="1"/><circle class="cls-1" cx="30" cy="7" r="1"/><circle class="cls-1" cx="33" cy="7" r="1"/><circle class="cls-1" cx="36" cy="7" r="1"/><circle class="cls-1" cx="42" cy="7" r="1"/><circle class="cls-1" cx="45" cy="7" r="1"/><circle class="cls-1" cx="48" cy="7" r="1"/><circle class="cls-1" cx="51" cy="7" r="1"/><circle class="cls-1" cx="54" cy="7" r="1"/><circle class="cls-1" cx="60" cy="7" r="1"/><circle class="cls-1" cx="63" cy="7" r="1"/><circle class="cls-1" cx="66" cy="7" r="1"/><circle class="cls-1" cx="2" cy="10" r="1"/><circle class="cls-1" cx="5" cy="10" r="1"/><circle class="cls-1" cx="8" cy="10" r="1"/><circle class="cls-1" cx="11" cy="10" r="1"/><circle class="cls-1" cx="14" cy="10" r="1"/><circle class="cls-1" cx="17" cy="10" r="1"/><circle class="cls-1" cx="20" cy="10" r="1"/><circle class="cls-1" cx="23" cy="10" r="1"/><circle class="cls-1" cx="26" cy="10" r="1"/><circle class="cls-1" cx="29" cy="10" r="1"/><circle class="cls-1" cx="32" cy="10" r="1"/><circle class="cls-1" cx="35" cy="10" r="1"/><circle class="cls-1" cx="38" cy="10" r="1"/><circle class="cls-1" cx="41" cy="10" r="1"/><circle class="cls-1" cx="44" cy="10" r="1"/><circle class="cls-1" cx="47" cy="10" r="1"/><circle class="cls-1" cx="50" cy="10" r="1"/><circle class="cls-1" cx="53" cy="10" r="1"/><circle class="cls-1" cx="56" cy="10" r="1"/><circle class="cls-1" cx="59" cy="10" r="1"/><circle class="cls-1" cx="62" cy="10" r="1"/><circle class="cls-1" cx="65" cy="10" r="1"/><circle class="cls-1" cx="1" cy="13" r="1"/><circle class="cls-1" cx="4" cy="13" r="1"/><circle class="cls-1" cx="10" cy="13" r="1"/><circle class="cls-1" cx="13" cy="13" r="1"/><circle class="cls-1" cx="16" cy="13" r="1"/><circle class="cls-1" cx="19" cy="13" r="1"/><circle class="cls-1" cx="22" cy="13" r="1"/><circle class="cls-1" cx="28" cy="13" r="1"/><circle class="cls-1" cx="31" cy="13" r="1"/><circle class="cls-1" cx="34" cy="13" r="1"/><circle class="cls-1" cx="37" cy="13" r="1"/><circle class="cls-1" cx="40" cy="13" r="1"/><circle class="cls-1" cx="46" cy="13" r="1"/><circle class="cls-1" cx="49" cy="13" r="1"/><circle class="cls-1" cx="52" cy="13" r="1"/><circle class="cls-1" cx="55" cy="13" r="1"/><circle class="cls-1" cx="58" cy="13" r="1"/><circle class="cls-1" cx="64" cy="13" r="1"/></g></svg>