<?xml version="1.0" encoding="UTF-8"?><svg id="Layer_2" xmlns="http://www.w3.org/2000/svg" viewBox="0 0 32 32"><defs><style>.cls-1{fill:none;}.cls-2{fill:#1d1d1b;}</style></defs><g id="outline"><rect class="cls-1" width="32" height="32"/><rect class="cls-2" x="4" y="6" width="1" height="1"/><rect class="cls-2" x="5" y="7" width="1" height="1"/><rect class="cls-2" x="6" y="7" width="1" height="1"/><rect class="cls-2" x="7" y="8" width="1" height="1"/><rect class="cls-2" x="7" y="9" width="1" height="1"/><rect class="cls-2" x="7" y="10" width="1" height="1"/><rect class="cls-2" x="7" y="11" width="1" height="1"/><rect class="cls-2" x="9" y="12" width="1" height="1"/><rect class="cls-2" x="18" y="15" width="1" height="1"/><rect class="cls-2" x="16" y="18" width="1" height="1" transform="translate(35 2) rotate(90)"/><rect class="cls-2" x="13" y="16" width="1" height="1" transform="translate(27 33) rotate(180)"/><rect class="cls-2" x="15" y="13" width="1" height="1" transform="translate(2 29) rotate(-90)"/><rect class="cls-2" x="8" y="14" width="1" height="1"/><rect class="cls-2" x="8" y="15" width="1" height="1"/><rect class="cls-2" x="8" y="16" width="1" height="1"/><rect class="cls-2" x="8" y="17" width="1" height="1"/><rect class="cls-2" x="7" y="18" width="1" height="1"/><rect class="cls-2" x="25" y="4" width="1" height="1" transform="translate(30 -21) rotate(90)"/><rect class="cls-2" x="24" y="5" width="1" height="1" transform="translate(30 -19) rotate(90)"/><rect class="cls-2" x="24" y="6" width="1" height="1" transform="translate(31 -18) rotate(90)"/><rect class="cls-2" x="23" y="7" width="1" height="1" transform="translate(31 -16) rotate(90)"/><rect class="cls-2" x="22" y="7" width="1" height="1" transform="translate(30 -15) rotate(90)"/><rect class="cls-2" x="21" y="7" width="1" height="1" transform="translate(29 -14) rotate(90)"/><rect class="cls-2" x="20" y="7" width="1" height="1" transform="translate(28 -13) rotate(90)"/><rect class="cls-2" x="19" y="9" width="1" height="1" transform="translate(29 -10) rotate(90)"/><rect class="cls-2" x="17" y="8" width="1" height="1" transform="translate(26 -9) rotate(90)"/><rect class="cls-2" x="16" y="8" width="1" height="1" transform="translate(25 -8) rotate(90)"/><rect class="cls-2" x="15" y="8" width="1" height="1" transform="translate(24 -7) rotate(90)"/><rect class="cls-2" x="14" y="8" width="1" height="1" transform="translate(23 -6) rotate(90)"/><rect class="cls-2" x="13" y="7" width="1" height="1" transform="translate(21 -6) rotate(90)"/><rect class="cls-2" x="27" y="25" width="1" height="1" transform="translate(55 51) rotate(180)"/><rect class="cls-2" x="26" y="24" width="1" height="1" transform="translate(53 49) rotate(180)"/><rect class="cls-2" x="25" y="24" width="1" height="1" transform="translate(51 49) rotate(180)"/><rect class="cls-2" x="24" y="23" width="1" height="1" transform="translate(49 47) rotate(180)"/><rect class="cls-2" x="24" y="22" width="1" height="1" transform="translate(49 45) rotate(180)"/><rect class="cls-2" x="24" y="21" width="1" height="1" transform="translate(49 43) rotate(180)"/><rect class="cls-2" x="24" y="20" width="1" height="1" transform="translate(49 41) rotate(180)"/><rect class="cls-2" x="22" y="19" width="1" height="1" transform="translate(45 39) rotate(180)"/><rect class="cls-2" x="23" y="18" width="1" height="1" transform="translate(47 37) rotate(180)"/><rect class="cls-2" x="23" y="17" width="1" height="1" transform="translate(47 35) rotate(180)"/><rect class="cls-2" x="23" y="16" width="1" height="1" transform="translate(47 33) rotate(180)"/><rect class="cls-2" x="23" y="15" width="1" height="1" transform="translate(47 31) rotate(180)"/><rect class="cls-2" x="24" y="13" width="1" height="1" transform="translate(49 27) rotate(180)"/><rect class="cls-2" x="6" y="27" width="1" height="1" transform="translate(-21 34) rotate(-90)"/><rect class="cls-2" x="7" y="26" width="1" height="1" transform="translate(-19 34) rotate(-90)"/><rect class="cls-2" x="7" y="25" width="1" height="1" transform="translate(-18 33) rotate(-90)"/><rect class="cls-2" x="8" y="24" width="1" height="1" transform="translate(-16 33) rotate(-90)"/><rect class="cls-2" x="9" y="24" width="1" height="1" transform="translate(-15 34) rotate(-90)"/><rect class="cls-2" x="10" y="24" width="1" height="1" transform="translate(-14 35) rotate(-90)"/><rect class="cls-2" x="11" y="24" width="1" height="1" transform="translate(-13 36) rotate(-90)"/><rect class="cls-2" x="12" y="22" width="1" height="1" transform="translate(-10 35) rotate(-90)"/><rect class="cls-2" x="14" y="23" width="1" height="1" transform="translate(-9 38) rotate(-90)"/><rect class="cls-2" x="15" y="23" width="1" height="1" transform="translate(-8 39) rotate(-90)"/><rect class="cls-2" x="16" y="23" width="1" height="1" transform="translate(-7 40) rotate(-90)"/><rect class="cls-2" x="17" y="23" width="1" height="1" transform="translate(-6 41) rotate(-90)"/><rect class="cls-2" x="18" y="24" width="1" height="1" transform="translate(-6 43) rotate(-90)"/></g></svg>