<svg viewBox="0 0 32 32">
    <g id="outline">
        <rect class="cls-1" width="32" height="32" />
        <animate />
    </g>
    <g id="frame1">
        <rect class="cls-2" x="8" y="25" width="1" height="1" />
        <rect class="cls-2" x="8" y="25" width="1" height="1" />
        <rect class="cls-2" x="9" y="25" width="1" height="1" />
        <rect class="cls-2" x="10" y="25" width="1" height="1" />
        <rect class="cls-2" x="11" y="25" width="1" height="1" />
        <rect class="cls-2" x="12" y="25" width="1" height="1" />
        <rect class="cls-2" x="12" y="25" width="1" height="1" />
        <rect class="cls-2" x="19" y="13" width="1" height="1" />
        <rect class="cls-2" x="19" y="13" width="1" height="1" />
        <rect class="cls-2" x="20" y="13" width="1" height="1" />
        <rect class="cls-2" x="21" y="13" width="1" height="1" />
        <rect class="cls-2" x="22" y="13" width="1" height="1" />
        <rect class="cls-2" x="23" y="13" width="1" height="1" />
        <rect class="cls-2" x="23" y="13" width="1" height="1" />
    </g>
    <g id="frame2">
        <rect class="cls-2" x="7" y="25" width="1" height="1" />
        <rect class="cls-2" x="8" y="25" width="1" height="1" />
        <rect class="cls-2" x="8" y="25" width="1" height="1" />
        <rect class="cls-2" x="9" y="24" width="1" height="1" />
        <rect class="cls-2" x="10" y="24" width="1" height="1" />
        <rect class="cls-2" x="11" y="24" width="1" height="1" />
        <rect class="cls-2" x="12" y="25" width="1" height="1" />
        <rect class="cls-2" x="12" y="25" width="1" height="1" />
        <rect class="cls-2" x="13" y="25" width="1" height="1" />
        <rect class="cls-2" x="18" y="13" width="1" height="1" />
        <rect class="cls-2" x="19" y="13" width="1" height="1" />
        <rect class="cls-2" x="19" y="13" width="1" height="1" />
        <rect class="cls-2" x="20" y="12" width="1" height="1" />
        <rect class="cls-2" x="21" y="12" width="1" height="1" />
        <rect class="cls-2" x="22" y="12" width="1" height="1" />
        <rect class="cls-2" x="23" y="13" width="1" height="1" />
        <rect class="cls-2" x="23" y="13" width="1" height="1" />
        <rect class="cls-2" x="24" y="13" width="1" height="1" />
    </g>
    <g id="frame3">
        <rect class="cls-2" x="6" y="25" width="1" height="1" />
        <rect class="cls-2" x="7" y="25" width="1" height="1" />
        <rect class="cls-2" x="8" y="24" width="1" height="1" />
        <rect class="cls-2" x="8" y="24" width="1" height="1" />
        <rect class="cls-2" x="9" y="23" width="1" height="1" />
        <rect class="cls-2" x="10" y="23" width="1" height="1" />
        <rect class="cls-2" x="11" y="23" width="1" height="1" />
        <rect class="cls-2" x="12" y="24" width="1" height="1" />
        <rect class="cls-2" x="12" y="24" width="1" height="1" />
        <rect class="cls-2" x="13" y="25" width="1" height="1" />
        <rect class="cls-2" x="14" y="25" width="1" height="1" />
        <rect class="cls-2" x="17" y="13" width="1" height="1" />
        <rect class="cls-2" x="18" y="13" width="1" height="1" />
        <rect class="cls-2" x="19" y="12" width="1" height="1" />
        <rect class="cls-2" x="19" y="12" width="1" height="1" />
        <rect class="cls-2" x="20" y="11" width="1" height="1" />
        <rect class="cls-2" x="21" y="11" width="1" height="1" />
        <rect class="cls-2" x="22" y="11" width="1" height="1" />
        <rect class="cls-2" x="23" y="12" width="1" height="1" />
        <rect class="cls-2" x="23" y="12" width="1" height="1" />
        <rect class="cls-2" x="24" y="13" width="1" height="1" />
        <rect class="cls-2" x="25" y="13" width="1" height="1" />
    </g>
    <g id="frame4">
        <rect class="cls-2" x="6" y="25" width="1" height="1" />
        <rect class="cls-2" x="7" y="24" width="1" height="1" />
        <rect class="cls-2" x="8" y="23" width="1" height="1" />
        <rect class="cls-2" x="8" y="23" width="1" height="1" />
        <rect class="cls-2" x="9" y="22" width="1" height="1" />
        <rect class="cls-2" x="10" y="22" width="1" height="1" />
        <rect class="cls-2" x="11" y="22" width="1" height="1" />
        <rect class="cls-2" x="12" y="23" width="1" height="1" />
        <rect class="cls-2" x="12" y="23" width="1" height="1" />
        <rect class="cls-2" x="13" y="24" width="1" height="1" />
        <rect class="cls-2" x="14" y="25" width="1" height="1" />
        <rect class="cls-2" x="17" y="13" width="1" height="1" />
        <rect class="cls-2" x="18" y="12" width="1" height="1" />
        <rect class="cls-2" x="19" y="11" width="1" height="1" />
        <rect class="cls-2" x="19" y="11" width="1" height="1" />
        <rect class="cls-2" x="20" y="10" width="1" height="1" />
        <rect class="cls-2" x="21" y="10" width="1" height="1" />
        <rect class="cls-2" x="22" y="10" width="1" height="1" />
        <rect class="cls-2" x="23" y="11" width="1" height="1" />
        <rect class="cls-2" x="23" y="11" width="1" height="1" />
        <rect class="cls-2" x="24" y="12" width="1" height="1" />
        <rect class="cls-2" x="25" y="13" width="1" height="1" />
    </g>
    <g id="frame5">
        <rect class="cls-2" x="6" y="25" width="1" height="1" />
        <rect class="cls-2" x="7" y="24" width="1" height="1" />
        <rect class="cls-2" x="8" y="23" width="1" height="1" />
        <rect class="cls-2" x="8" y="22" width="1" height="1" />
        <rect class="cls-2" x="9" y="21" width="1" height="1" />
        <rect class="cls-2" x="10" y="21" width="1" height="1" />
        <rect class="cls-2" x="11" y="21" width="1" height="1" />
        <rect class="cls-2" x="12" y="22" width="1" height="1" />
        <rect class="cls-2" x="12" y="23" width="1" height="1" />
        <rect class="cls-2" x="13" y="24" width="1" height="1" />
        <rect class="cls-2" x="14" y="25" width="1" height="1" />
        <rect class="cls-2" x="17" y="13" width="1" height="1" />
        <rect class="cls-2" x="18" y="12" width="1" height="1" />
        <rect class="cls-2" x="19" y="11" width="1" height="1" />
        <rect class="cls-2" x="19" y="10" width="1" height="1" />
        <rect class="cls-2" x="20" y="9" width="1" height="1" />
        <rect class="cls-2" x="21" y="9" width="1" height="1" />
        <rect class="cls-2" x="22" y="9" width="1" height="1" />
        <rect class="cls-2" x="23" y="10" width="1" height="1" />
        <rect class="cls-2" x="23" y="11" width="1" height="1" />
        <rect class="cls-2" x="24" y="12" width="1" height="1" />
        <rect class="cls-2" x="25" y="13" width="1" height="1" />
    </g>
    <g id="frame6">
        <rect class="cls-2" x="10" y="21" width="1" height="1" />
        <rect class="cls-2" x="9" y="20" width="1" height="1" />
        <rect class="cls-2" x="10" y="19" width="1" height="1" />
        <rect class="cls-2" x="11" y="20" width="1" height="1" />
        <rect class="cls-2" x="6" y="25" width="1" height="1" />
        <rect class="cls-2" x="7" y="24" width="1" height="1" />
        <rect class="cls-2" x="8" y="24" width="1" height="1" />
        <rect class="cls-2" x="9" y="24" width="1" height="1" />
        <rect class="cls-2" x="10" y="24" width="1" height="1" />
        <rect class="cls-2" x="11" y="24" width="1" height="1" />
        <rect class="cls-2" x="12" y="24" width="1" height="1" />
        <rect class="cls-2" x="13" y="24" width="1" height="1" />
        <rect class="cls-2" x="14" y="25" width="1" height="1" />
        <rect class="cls-2" x="21" y="9" width="1" height="1" />
        <rect class="cls-2" x="20" y="8" width="1" height="1" />
        <rect class="cls-2" x="21" y="7" width="1" height="1" />
        <rect class="cls-2" x="22" y="8" width="1" height="1" />
        <rect class="cls-2" x="17" y="13" width="1" height="1" />
        <rect class="cls-2" x="18" y="12" width="1" height="1" />
        <rect class="cls-2" x="19" y="12" width="1" height="1" />
        <rect class="cls-2" x="20" y="12" width="1" height="1" />
        <rect class="cls-2" x="21" y="12" width="1" height="1" />
        <rect class="cls-2" x="22" y="12" width="1" height="1" />
        <rect class="cls-2" x="23" y="12" width="1" height="1" />
        <rect class="cls-2" x="24" y="12" width="1" height="1" />
        <rect class="cls-2" x="25" y="13" width="1" height="1" />
    </g>
    <g id="frame7">
        <rect class="cls-2" x="10" y="20" width="1" height="1" />
        <rect class="cls-2" x="9" y="19" width="1" height="1" />
        <rect class="cls-2" x="10" y="18" width="1" height="1" />
        <rect class="cls-2" x="11" y="19" width="1" height="1" />
        <rect class="cls-2" x="7" y="25" width="1" height="1" />
        <rect class="cls-2" x="8" y="25" width="1" height="1" />
        <rect class="cls-2" x="9" y="25" width="1" height="1" />
        <rect class="cls-2" x="10" y="25" width="1" height="1" />
        <rect class="cls-2" x="11" y="25" width="1" height="1" />
        <rect class="cls-2" x="12" y="25" width="1" height="1" />
        <rect class="cls-2" x="13" y="25" width="1" height="1" />
        <rect class="cls-2" x="21" y="8" width="1" height="1" />
        <rect class="cls-2" x="20" y="7" width="1" height="1" />
        <rect class="cls-2" x="21" y="6" width="1" height="1" />
        <rect class="cls-2" x="22" y="7" width="1" height="1" />
        <rect class="cls-2" x="18" y="13" width="1" height="1" />
        <rect class="cls-2" x="19" y="13" width="1" height="1" />
        <rect class="cls-2" x="20" y="13" width="1" height="1" />
        <rect class="cls-2" x="21" y="13" width="1" height="1" />
        <rect class="cls-2" x="22" y="13" width="1" height="1" />
        <rect class="cls-2" x="23" y="13" width="1" height="1" />
        <rect class="cls-2" x="24" y="13" width="1" height="1" />
    </g>
</svg>