<?xml version="1.0" encoding="UTF-8"?><svg id="Layer_2" xmlns="http://www.w3.org/2000/svg" viewBox="0 0 32 32"><defs><style>.cls-1{fill:none;}.cls-2{fill:#dadada;}.cls-3{fill:#1d1d1b;}.cls-4{fill:#878787;}.cls-5{fill:#575756;}</style></defs><g id="Layer_10"><rect class="cls-1" width="32" height="32"/></g><g id="light"><rect class="cls-4" x="13" y="12" width="1" height="1"/><polygon class="cls-4" points="13 15 13 14 13 13 12 13 11 13 10 13 9 13 8 13 8 14 9 14 10 14 10 15 9 15 9 16 9 17 8 17 8 18 9 18 10 18 10 17 11 17 12 17 13 17 13 16 13 15"/><polygon class="cls-4" points="18 19 17 19 16 19 16 18 15 18 14 18 14 17 13 17 13 18 12 18 11 18 11 19 10 19 10 20 9 20 9 21 10 21 11 21 11 20 12 20 13 20 14 20 15 20 16 20 17 20 18 20 19 20 20 20 20 19 21 19 21 18 20 18 19 18 19 19 18 19"/><rect class="cls-4" x="21" y="16" width="1" height="1"/><polygon class="cls-4" points="22 14 22 15 22 16 23 16 23 15 23 14 22 14"/><polygon class="cls-4" points="22 12 22 11 21 11 21 10 21 9 20 9 20 8 19 8 19 9 19 10 20 10 20 11 20 12 21 12 21 13 21 14 22 14 22 13 22 12"/><rect class="cls-4" x="18" y="7" width="1" height="1"/><polygon class="cls-4" points="17 10 16 10 16 9 15 9 15 8 16 8 16 7 15 7 14 7 13 7 13 8 12 8 11 8 11 9 11 10 11 11 12 11 13 11 14 11 14 12 15 12 16 12 17 12 17 13 17 14 17 15 16 15 15 15 14 15 14 16 14 17 15 17 16 17 16 18 17 18 18 18 19 18 19 17 20 17 20 16 20 15 19 15 18 15 18 14 18 13 18 12 19 12 19 11 19 10 18 10 17 10"/><polygon class="cls-4" points="17 22 16 22 15 22 14 22 14 23 14 24 14 25 14 26 15 26 16 26 17 26 17 25 16 25 15 25 15 24 16 24 17 24 17 23 18 23 18 22 17 22"/><polygon class="cls-4" points="21 24 22 24 22 23 21 23 21 22 20 22 19 22 19 23 18 23 18 24 19 24 19 25 20 25 20 24 21 24"/><polygon class="cls-4" points="21 25 20 25 20 26 21 26 22 26 23 26 23 25 22 25 21 25"/></g><g id="medium"><polygon class="cls-5" points="15 17 14 17 14 18 15 18 16 18 16 17 15 17"/><polygon class="cls-5" points="18 20 17 20 16 20 15 20 14 20 14 21 15 21 16 21 17 21 18 21 19 21 20 21 20 20 19 20 18 20"/><rect class="cls-5" x="21" y="19" width="1" height="1"/><rect class="cls-5" x="9" y="19" width="1" height="1"/><rect class="cls-5" x="8" y="18" width="1" height="1"/><polygon class="cls-5" points="8 16 8 17 9 17 9 16 9 15 8 15 8 16"/><rect class="cls-5" x="9" y="14" width="1" height="1"/><rect class="cls-5" x="8" y="20" width="1" height="1"/><rect class="cls-5" x="19" y="17" width="1" height="1"/><polygon class="cls-5" points="17 18 16 18 16 19 17 19 18 19 19 19 19 18 18 18 17 18"/><polygon class="cls-5" points="12 11 11 11 11 12 10 12 9 12 8 12 8 13 9 13 10 13 11 13 12 13 13 13 13 12 14 12 14 11 13 11 12 11"/><polygon class="cls-5" points="14 10 14 11 15 11 16 11 16 10 15 10 14 10"/><polygon class="cls-5" points="18 9 17 9 16 9 16 10 17 10 18 10 19 10 19 9 18 9"/><polygon class="cls-5" points="19 11 19 12 20 12 20 11 20 10 19 10 19 11"/><polygon class="cls-5" points="16 7 17 7 18 7 18 6 17 6 16 6 15 6 14 6 14 7 15 7 16 7"/><rect class="cls-5" x="12" y="7" width="1" height="1"/></g><g id="bg"><rect class="cls-2" x="19" y="13" width="1" height="1"/><polygon class="cls-2" points="18 9 18 8 17 8 16 8 16 9 17 9 18 9"/><polygon class="cls-2" points="22 15 22 14 21 14 21 15 21 16 22 16 22 15"/><rect class="cls-2" x="15" y="13" width="1" height="1"/><polygon class="cls-2" points="12 16 12 17 13 17 13 16 13 15 12 15 12 16"/><polygon class="cls-2" points="8 20 8 19 7 19 6 19 5 19 5 20 5 21 6 21 7 21 7 22 8 22 9 22 9 21 8 21 8 20"/><polygon class="cls-2" points="19 21 18 21 17 21 16 21 15 21 14 21 14 22 15 22 16 22 17 22 18 22 19 22 20 22 21 22 21 21 20 21 19 21"/><polygon class="cls-2" points="21 24 20 24 20 25 21 25 22 25 23 25 23 24 22 24 21 24"/><polygon class="cls-2" points="15 24 15 25 16 25 17 25 17 24 16 24 15 24"/><polygon class="cls-2" points="24 18 23 18 22 18 22 19 22 20 21 20 21 21 22 21 23 21 23 20 24 20 25 20 25 19 25 18 24 18"/><rect class="cls-2" x="13" y="9" width="1" height="1"/></g><g id="dark"><polygon class="cls-3" points="16 6 17 6 18 6 18 5 17 5 16 5 15 5 14 5 14 6 15 6 16 6"/><polygon class="cls-3" points="14 7 14 6 13 6 12 6 12 7 13 7 14 7"/><rect class="cls-3" x="11" y="7" width="1" height="1"/><polygon class="cls-3" points="10 12 11 12 11 11 11 10 11 9 11 8 10 8 10 9 10 10 10 11 9 11 8 11 8 12 9 12 10 12"/><polygon class="cls-3" points="8 12 7 12 7 13 7 14 8 14 8 13 8 12"/><rect class="cls-3" x="8" y="14" width="1" height="1"/><rect class="cls-3" x="8" y="19" width="1" height="1"/><polygon class="cls-3" points="11 19 11 18 12 18 13 18 13 17 12 17 11 17 10 17 10 18 9 18 9 19 10 19 11 19"/><path class="cls-3" d="m14,16v-1h3v-3h-3v1h-1v4h1v-1Zm2-3v1h-1v-1h1Z"/><rect class="cls-3" x="18" y="6" width="1" height="1"/><rect class="cls-3" x="19" y="7" width="1" height="1"/><polygon class="cls-3" points="17 7 16 7 16 8 17 8 18 8 18 7 17 7"/><rect class="cls-3" x="18" y="8" width="1" height="1"/><rect class="cls-3" x="15" y="8" width="1" height="1"/><rect class="cls-3" x="11" y="11" width="1" height="1"/><rect class="cls-3" x="20" y="8" width="1" height="1"/><polygon class="cls-3" points="21 11 22 11 22 10 22 9 21 9 21 10 21 11"/><polygon class="cls-3" points="22 13 22 14 23 14 23 13 23 12 23 11 22 11 22 12 22 13"/><polygon class="cls-3" points="23 16 24 16 24 15 24 14 23 14 23 15 23 16"/><path class="cls-3" d="m22,17h-1v-5h-3v3h2v3h1v1h1v-1h3v-1h-2v-1h-1v1Zm-3-3v-1h1v1h-1Z"/><polygon class="cls-3" points="20 20 20 21 21 21 21 20 21 19 20 19 20 20"/><polygon class="cls-3" points="25 18 25 19 25 20 26 20 26 19 26 18 25 18"/><polygon class="cls-3" points="23 20 23 21 22 21 21 21 21 22 21 23 22 23 22 22 23 22 24 22 24 21 25 21 25 20 24 20 23 20"/><rect class="cls-3" x="22" y="23" width="1" height="1"/><polygon class="cls-3" points="23 26 24 26 24 25 24 24 23 24 23 25 23 26"/><polygon class="cls-3" points="21 26 20 26 20 27 21 27 22 27 23 27 23 26 22 26 21 26"/><rect class="cls-3" x="19" y="25" width="1" height="1"/><polygon class="cls-3" points="18 24 18 23 17 23 17 24 17 25 17 26 18 26 18 25 19 25 19 24 18 24"/><polygon class="cls-3" points="14 24 14 23 14 22 14 21 14 20 14 19 13 19 13 20 12 20 11 20 11 21 12 21 13 21 13 22 13 23 13 24 13 25 13 26 14 26 14 25 14 24"/><polygon class="cls-3" points="15 26 14 26 14 27 15 27 16 27 17 27 17 26 16 26 15 26"/><rect class="cls-3" x="18" y="22" width="1" height="1"/><polygon class="cls-3" points="7 19 8 19 8 18 8 17 8 16 8 15 7 15 7 16 7 17 7 18 6 18 5 18 5 19 6 19 7 19"/><polygon class="cls-3" points="5 19 4 19 4 20 4 21 5 21 5 20 5 19"/><polygon class="cls-3" points="6 21 5 21 5 22 6 22 7 22 7 21 6 21"/><polygon class="cls-3" points="7 22 7 23 8 23 9 23 9 22 8 22 7 22"/><polygon class="cls-3" points="9 21 9 22 10 22 11 22 11 21 10 21 9 21"/></g></svg>