<?xml version="1.0" encoding="UTF-8"?><svg id="Layer_2" xmlns="http://www.w3.org/2000/svg" viewBox="0 0 32 32"><defs><style>.cls-1{fill:none;}.cls-2{fill:#1d1d1b;}.cls-3{fill:#575756;}</style></defs><g id="Layer_10"><rect class="cls-1" width="32" height="32"/></g><g id="final"><polygon class="cls-3" points="29 28 30 28 30 4 29 4 29 3 28 3 28 2 4 2 4 3 3 3 3 4 2 4 2 28 3 28 3 29 4 29 4 30 28 30 28 29 29 29 29 28"/><path class="cls-2" d="m28,2v1h1v1h1v24h-1v1h-1v1H4v-1h-1v-1h-1V4h1v-1h1v-1h24m1-1H3v1h-1v1H1v26h1v1h1v1h26v-1h1v-1h1V3h-1v-1h-1v-1h0Z"/></g></svg>